<?xml version="1.0" standalone="no"?><!DOCTYPE svg PUBLIC "-//W3C//DTD SVG 1.1//EN" "http://www.w3.org/Graphics/SVG/1.1/DTD/svg11.dtd"><svg t="1710667541201" class="icon" viewBox="0 0 1024 1024" version="1.1" xmlns="http://www.w3.org/2000/svg" p-id="5141" xmlns:xlink="http://www.w3.org/1999/xlink" width="200" height="200"><path d="M812.5 262.4c25.6-44.6 18.3-99.2-14.4-135.4 31.8-13 63.8-19.8 93.5-18.9 12 0.4 22.1-9.1 22.5-21.2 0.4-12.1-9.1-22.2-21.2-22.5C849.5 63.1 802.3 75.3 757 98c-52.5-22-114.3-2-143.5 48.9l-8.4 14.6C436.6 121 254.8 194.1 163.7 352.8c-111 193.5-45.1 441 147.3 552.7 192.3 111.8 438.2 45.4 549.3-148.1 91.1-158.8 63-353.7-56.1-480.4l8.3-14.6z" fill="#211D1D" p-id="5142"></path></svg>